<svg width="444" height="229" viewBox="0 0 444 229" fill="none" xmlns="http://www.w3.org/2000/svg">
<rect width="444" height="229" fill="white"/>
<g clip-path="url(#clip0_14_2)">
<rect width="378" height="94" transform="translate(33 67)" fill="white"/>
<mask id="path-1-inside-1_14_2" fill="white">
<path d="M35.4601 139.947V103.999H87.9841V101.897H35.4601V69.1022H91.3052V67H33V142.049H91.7973V139.947H35.4601ZM139.155 88.0222L117.383 112.513L96.1025 88.0222H92.9043L115.907 114.09L90.6902 142.049H93.6424L117.383 115.666L141.246 142.049H144.321L118.982 114.09L142.107 88.0222H139.155ZM151.702 160.549V126.913H151.948C153.424 131.819 156.335 135.76 160.681 138.738C165.027 141.717 170.563 143.206 177.287 143.206C181.633 143.206 185.487 142.452 188.85 140.946C192.212 139.439 195.02 137.389 197.276 134.797C199.531 132.204 201.253 129.191 202.442 125.757C203.631 122.324 204.226 118.715 204.226 114.931C204.226 110.866 203.61 107.117 202.38 103.684C201.15 100.25 199.367 97.272 197.03 94.7494C194.692 92.2267 191.863 90.2646 188.542 88.8631C185.221 87.4616 181.469 86.7609 177.287 86.7609C174.089 86.7609 171.116 87.1638 168.369 87.9697C165.622 88.7755 163.182 89.9142 161.05 91.3858C158.918 92.8574 157.073 94.5917 155.515 96.5888C153.957 98.5859 152.768 100.776 151.948 103.158H151.702V88.0222H149.241V160.549H151.702ZM177.287 141.209C169.579 141.209 163.387 138.949 158.713 134.429C154.039 129.909 151.702 123.41 151.702 114.931C151.702 111.427 152.276 108.098 153.424 104.945C154.572 101.792 156.232 99.0239 158.405 96.6414C160.579 94.2588 163.264 92.3668 166.462 90.9654C169.661 89.5639 173.269 88.8631 177.287 88.8631C181.387 88.8631 184.975 89.5639 188.05 90.9654C191.125 92.3668 193.667 94.2763 195.677 96.6939C197.686 99.1115 199.203 101.879 200.228 104.998C201.253 108.116 201.765 111.427 201.765 114.931C201.765 118.084 201.294 121.22 200.351 124.338C199.408 127.456 197.952 130.259 195.984 132.747C194.016 135.235 191.494 137.267 188.419 138.844C185.344 140.42 181.633 141.209 177.287 141.209ZM217.756 142.049V111.462C217.756 108.519 218.248 105.646 219.232 102.843C220.216 100.04 221.733 97.5698 223.784 95.4326C225.834 93.2953 228.437 91.6135 231.595 90.3872C234.752 89.1609 238.503 88.6529 242.85 88.8631V86.7609C239.077 86.6908 235.777 87.0412 232.948 87.812C230.118 88.5828 227.679 89.6339 225.629 90.9654C223.579 92.2968 221.938 93.8559 220.708 95.6428C219.478 97.4297 218.576 99.3392 218.002 101.371H217.756V88.0222H215.296V142.049H217.756ZM245.925 115.456H298.818C298.982 111.742 298.551 108.169 297.526 104.735C296.501 101.301 294.861 98.2531 292.606 95.5902C290.351 92.9274 287.44 90.7902 283.872 89.1785C280.305 87.5668 276.062 86.7609 271.141 86.7609C267.615 86.7609 264.171 87.3916 260.809 88.6529C257.446 89.9142 254.494 91.7537 251.952 94.1712C249.41 96.5888 247.36 99.5494 245.802 103.053C244.244 106.557 243.465 110.551 243.465 115.036C243.465 119.03 243.998 122.761 245.064 126.23C246.13 129.699 247.77 132.712 249.984 135.27C252.198 137.827 255.048 139.807 258.533 141.209C262.018 142.61 266.221 143.276 271.141 143.206C278.358 143.206 284.426 141.471 289.346 138.003C294.267 134.534 297.178 129.646 298.08 123.34H295.62C294.554 129.296 291.827 133.763 287.44 136.741C283.052 139.719 277.538 141.209 270.895 141.209C266.385 141.209 262.572 140.543 259.456 139.211C256.339 137.88 253.797 136.058 251.829 133.746C249.861 131.433 248.405 128.718 247.462 125.599C246.519 122.481 246.007 119.1 245.925 115.456ZM296.358 113.354H245.925C246.171 109.57 246.991 106.171 248.385 103.158C249.779 100.145 251.604 97.5698 253.859 95.4326C256.114 93.2953 258.738 91.6661 261.731 90.5449C264.724 89.4237 267.943 88.8631 271.387 88.8631C275.487 88.8631 279.096 89.5113 282.212 90.8077C285.328 92.1041 287.932 93.8734 290.023 96.1158C292.114 98.3582 293.692 100.968 294.759 103.947C295.825 106.925 296.358 110.061 296.358 113.354ZM349.866 103.999H352.326C352.326 97.9727 350.276 93.5931 346.175 90.8602C342.075 88.1273 336.499 86.7609 329.446 86.7609C325.51 86.7609 322.189 87.1813 319.483 88.0222C316.777 88.8631 314.563 89.9493 312.841 91.2807C311.118 92.6121 309.888 94.0836 309.15 95.6954C308.412 97.3071 308.043 98.8487 308.043 100.32C308.043 103.263 308.658 105.611 309.888 107.363C311.118 109.115 313.046 110.481 315.67 111.462C317.474 112.163 319.524 112.793 321.82 113.354C324.116 113.915 326.781 114.51 329.815 115.141C332.522 115.702 335.187 116.262 337.811 116.823C340.435 117.383 342.752 118.137 344.761 119.083C346.77 120.029 348.41 121.237 349.681 122.709C350.952 124.18 351.588 126.108 351.588 128.49C351.588 130.803 350.952 132.765 349.681 134.376C348.41 135.988 346.79 137.302 344.822 138.318C342.854 139.334 340.661 140.07 338.241 140.525C335.822 140.981 333.465 141.209 331.169 141.209C323.706 141.209 317.986 139.79 314.009 136.952C310.032 134.113 308.043 129.646 308.043 123.55H305.583C305.583 130.347 307.736 135.322 312.041 138.476C316.346 141.629 322.722 143.206 331.169 143.206C333.875 143.206 336.601 142.943 339.349 142.417C342.096 141.892 344.556 141.033 346.729 139.842C348.902 138.651 350.665 137.109 352.018 135.217C353.371 133.325 354.048 131.013 354.048 128.28C354.048 125.687 353.453 123.585 352.264 121.973C351.075 120.361 349.517 119.03 347.59 117.979C345.663 116.928 343.49 116.104 341.071 115.509C338.651 114.913 336.212 114.335 333.752 113.774C330.308 113.004 327.294 112.338 324.711 111.777C322.128 111.217 319.729 110.551 317.515 109.78C315.383 109.009 313.681 107.906 312.41 106.469C311.139 105.033 310.503 102.983 310.503 100.32C310.503 99.8297 310.667 98.9538 310.995 97.6925C311.323 96.4311 312.102 95.1523 313.333 93.8559C314.563 92.5595 316.449 91.4033 318.991 90.3872C321.533 89.3712 325.018 88.8631 329.446 88.8631C332.481 88.8631 335.248 89.1434 337.749 89.704C340.251 90.2646 342.403 91.158 344.207 92.3844C346.011 93.6107 347.405 95.1698 348.39 97.0618C349.374 98.9538 349.866 101.266 349.866 103.999ZM406.818 103.999H409.278C409.278 97.9727 407.228 93.5931 403.128 90.8602C399.027 88.1273 393.451 86.7609 386.399 86.7609C382.462 86.7609 379.141 87.1813 376.435 88.0222C373.729 88.8631 371.515 89.9493 369.793 91.2807C368.071 92.6121 366.841 94.0836 366.103 95.6954C365.364 97.3071 364.995 98.8487 364.995 100.32C364.995 103.263 365.61 105.611 366.841 107.363C368.071 109.115 369.998 110.481 372.622 111.462C374.426 112.163 376.476 112.793 378.772 113.354C381.068 113.915 383.733 114.51 386.768 115.141C389.474 115.702 392.139 116.262 394.763 116.823C397.387 117.383 399.704 118.137 401.713 119.083C403.722 120.029 405.362 121.237 406.633 122.709C407.904 124.18 408.54 126.108 408.54 128.49C408.54 130.803 407.904 132.765 406.633 134.376C405.362 135.988 403.743 137.302 401.774 138.318C399.806 139.334 397.613 140.07 395.194 140.525C392.774 140.981 390.417 141.209 388.121 141.209C380.658 141.209 374.939 139.79 370.961 136.952C366.984 134.113 364.995 129.646 364.995 123.55H362.535C362.535 130.347 364.688 135.322 368.993 138.476C373.298 141.629 379.674 143.206 388.121 143.206C390.827 143.206 393.554 142.943 396.301 142.417C399.048 141.892 401.508 141.033 403.681 139.842C405.854 138.651 407.617 137.109 408.97 135.217C410.323 133.325 411 131.013 411 128.28C411 125.687 410.405 123.585 409.216 121.973C408.027 120.361 406.469 119.03 404.542 117.979C402.615 116.928 400.442 116.104 398.023 115.509C395.604 114.913 393.164 114.335 390.704 113.774C387.26 113.004 384.246 112.338 381.663 111.777C379.08 111.217 376.681 110.551 374.467 109.78C372.335 109.009 370.633 107.906 369.362 106.469C368.091 105.033 367.456 102.983 367.456 100.32C367.456 99.8297 367.62 98.9538 367.948 97.6925C368.276 96.4311 369.055 95.1523 370.285 93.8559C371.515 92.5595 373.401 91.4033 375.943 90.3872C378.485 89.3712 381.97 88.8631 386.399 88.8631C389.433 88.8631 392.2 89.1434 394.702 89.704C397.203 90.2646 399.355 91.158 401.159 92.3844C402.964 93.6107 404.358 95.1698 405.342 97.0618C406.326 98.9538 406.818 101.266 406.818 103.999Z"/>
</mask>
<path d="M35.4601 139.947V103.999H87.9841V101.897H35.4601V69.1022H91.3052V67H33V142.049H91.7973V139.947H35.4601ZM139.155 88.0222L117.383 112.513L96.1025 88.0222H92.9043L115.907 114.09L90.6902 142.049H93.6424L117.383 115.666L141.246 142.049H144.321L118.982 114.09L142.107 88.0222H139.155ZM151.702 160.549V126.913H151.948C153.424 131.819 156.335 135.76 160.681 138.738C165.027 141.717 170.563 143.206 177.287 143.206C181.633 143.206 185.487 142.452 188.85 140.946C192.212 139.439 195.02 137.389 197.276 134.797C199.531 132.204 201.253 129.191 202.442 125.757C203.631 122.324 204.226 118.715 204.226 114.931C204.226 110.866 203.61 107.117 202.38 103.684C201.15 100.25 199.367 97.272 197.03 94.7494C194.692 92.2267 191.863 90.2646 188.542 88.8631C185.221 87.4616 181.469 86.7609 177.287 86.7609C174.089 86.7609 171.116 87.1638 168.369 87.9697C165.622 88.7755 163.182 89.9142 161.05 91.3858C158.918 92.8574 157.073 94.5917 155.515 96.5888C153.957 98.5859 152.768 100.776 151.948 103.158H151.702V88.0222H149.241V160.549H151.702ZM177.287 141.209C169.579 141.209 163.387 138.949 158.713 134.429C154.039 129.909 151.702 123.41 151.702 114.931C151.702 111.427 152.276 108.098 153.424 104.945C154.572 101.792 156.232 99.0239 158.405 96.6414C160.579 94.2588 163.264 92.3668 166.462 90.9654C169.661 89.5639 173.269 88.8631 177.287 88.8631C181.387 88.8631 184.975 89.5639 188.05 90.9654C191.125 92.3668 193.667 94.2763 195.677 96.6939C197.686 99.1115 199.203 101.879 200.228 104.998C201.253 108.116 201.765 111.427 201.765 114.931C201.765 118.084 201.294 121.22 200.351 124.338C199.408 127.456 197.952 130.259 195.984 132.747C194.016 135.235 191.494 137.267 188.419 138.844C185.344 140.42 181.633 141.209 177.287 141.209ZM217.756 142.049V111.462C217.756 108.519 218.248 105.646 219.232 102.843C220.216 100.04 221.733 97.5698 223.784 95.4326C225.834 93.2953 228.437 91.6135 231.595 90.3872C234.752 89.1609 238.503 88.6529 242.85 88.8631V86.7609C239.077 86.6908 235.777 87.0412 232.948 87.812C230.118 88.5828 227.679 89.6339 225.629 90.9654C223.579 92.2968 221.938 93.8559 220.708 95.6428C219.478 97.4297 218.576 99.3392 218.002 101.371H217.756V88.0222H215.296V142.049H217.756ZM245.925 115.456H298.818C298.982 111.742 298.551 108.169 297.526 104.735C296.501 101.301 294.861 98.2531 292.606 95.5902C290.351 92.9274 287.44 90.7902 283.872 89.1785C280.305 87.5668 276.062 86.7609 271.141 86.7609C267.615 86.7609 264.171 87.3916 260.809 88.6529C257.446 89.9142 254.494 91.7537 251.952 94.1712C249.41 96.5888 247.36 99.5494 245.802 103.053C244.244 106.557 243.465 110.551 243.465 115.036C243.465 119.03 243.998 122.761 245.064 126.23C246.13 129.699 247.77 132.712 249.984 135.27C252.198 137.827 255.048 139.807 258.533 141.209C262.018 142.61 266.221 143.276 271.141 143.206C278.358 143.206 284.426 141.471 289.346 138.003C294.267 134.534 297.178 129.646 298.08 123.34H295.62C294.554 129.296 291.827 133.763 287.44 136.741C283.052 139.719 277.538 141.209 270.895 141.209C266.385 141.209 262.572 140.543 259.456 139.211C256.339 137.88 253.797 136.058 251.829 133.746C249.861 131.433 248.405 128.718 247.462 125.599C246.519 122.481 246.007 119.1 245.925 115.456ZM296.358 113.354H245.925C246.171 109.57 246.991 106.171 248.385 103.158C249.779 100.145 251.604 97.5698 253.859 95.4326C256.114 93.2953 258.738 91.6661 261.731 90.5449C264.724 89.4237 267.943 88.8631 271.387 88.8631C275.487 88.8631 279.096 89.5113 282.212 90.8077C285.328 92.1041 287.932 93.8734 290.023 96.1158C292.114 98.3582 293.692 100.968 294.759 103.947C295.825 106.925 296.358 110.061 296.358 113.354ZM349.866 103.999H352.326C352.326 97.9727 350.276 93.5931 346.175 90.8602C342.075 88.1273 336.499 86.7609 329.446 86.7609C325.51 86.7609 322.189 87.1813 319.483 88.0222C316.777 88.8631 314.563 89.9493 312.841 91.2807C311.118 92.6121 309.888 94.0836 309.15 95.6954C308.412 97.3071 308.043 98.8487 308.043 100.32C308.043 103.263 308.658 105.611 309.888 107.363C311.118 109.115 313.046 110.481 315.67 111.462C317.474 112.163 319.524 112.793 321.82 113.354C324.116 113.915 326.781 114.51 329.815 115.141C332.522 115.702 335.187 116.262 337.811 116.823C340.435 117.383 342.752 118.137 344.761 119.083C346.77 120.029 348.41 121.237 349.681 122.709C350.952 124.18 351.588 126.108 351.588 128.49C351.588 130.803 350.952 132.765 349.681 134.376C348.41 135.988 346.79 137.302 344.822 138.318C342.854 139.334 340.661 140.07 338.241 140.525C335.822 140.981 333.465 141.209 331.169 141.209C323.706 141.209 317.986 139.79 314.009 136.952C310.032 134.113 308.043 129.646 308.043 123.55H305.583C305.583 130.347 307.736 135.322 312.041 138.476C316.346 141.629 322.722 143.206 331.169 143.206C333.875 143.206 336.601 142.943 339.349 142.417C342.096 141.892 344.556 141.033 346.729 139.842C348.902 138.651 350.665 137.109 352.018 135.217C353.371 133.325 354.048 131.013 354.048 128.28C354.048 125.687 353.453 123.585 352.264 121.973C351.075 120.361 349.517 119.03 347.59 117.979C345.663 116.928 343.49 116.104 341.071 115.509C338.651 114.913 336.212 114.335 333.752 113.774C330.308 113.004 327.294 112.338 324.711 111.777C322.128 111.217 319.729 110.551 317.515 109.78C315.383 109.009 313.681 107.906 312.41 106.469C311.139 105.033 310.503 102.983 310.503 100.32C310.503 99.8297 310.667 98.9538 310.995 97.6925C311.323 96.4311 312.102 95.1523 313.333 93.8559C314.563 92.5595 316.449 91.4033 318.991 90.3872C321.533 89.3712 325.018 88.8631 329.446 88.8631C332.481 88.8631 335.248 89.1434 337.749 89.704C340.251 90.2646 342.403 91.158 344.207 92.3844C346.011 93.6107 347.405 95.1698 348.39 97.0618C349.374 98.9538 349.866 101.266 349.866 103.999ZM406.818 103.999H409.278C409.278 97.9727 407.228 93.5931 403.128 90.8602C399.027 88.1273 393.451 86.7609 386.399 86.7609C382.462 86.7609 379.141 87.1813 376.435 88.0222C373.729 88.8631 371.515 89.9493 369.793 91.2807C368.071 92.6121 366.841 94.0836 366.103 95.6954C365.364 97.3071 364.995 98.8487 364.995 100.32C364.995 103.263 365.61 105.611 366.841 107.363C368.071 109.115 369.998 110.481 372.622 111.462C374.426 112.163 376.476 112.793 378.772 113.354C381.068 113.915 383.733 114.51 386.768 115.141C389.474 115.702 392.139 116.262 394.763 116.823C397.387 117.383 399.704 118.137 401.713 119.083C403.722 120.029 405.362 121.237 406.633 122.709C407.904 124.18 408.54 126.108 408.54 128.49C408.54 130.803 407.904 132.765 406.633 134.376C405.362 135.988 403.743 137.302 401.774 138.318C399.806 139.334 397.613 140.07 395.194 140.525C392.774 140.981 390.417 141.209 388.121 141.209C380.658 141.209 374.939 139.79 370.961 136.952C366.984 134.113 364.995 129.646 364.995 123.55H362.535C362.535 130.347 364.688 135.322 368.993 138.476C373.298 141.629 379.674 143.206 388.121 143.206C390.827 143.206 393.554 142.943 396.301 142.417C399.048 141.892 401.508 141.033 403.681 139.842C405.854 138.651 407.617 137.109 408.97 135.217C410.323 133.325 411 131.013 411 128.28C411 125.687 410.405 123.585 409.216 121.973C408.027 120.361 406.469 119.03 404.542 117.979C402.615 116.928 400.442 116.104 398.023 115.509C395.604 114.913 393.164 114.335 390.704 113.774C387.26 113.004 384.246 112.338 381.663 111.777C379.08 111.217 376.681 110.551 374.467 109.78C372.335 109.009 370.633 107.906 369.362 106.469C368.091 105.033 367.456 102.983 367.456 100.32C367.456 99.8297 367.62 98.9538 367.948 97.6925C368.276 96.4311 369.055 95.1523 370.285 93.8559C371.515 92.5595 373.401 91.4033 375.943 90.3872C378.485 89.3712 381.97 88.8631 386.399 88.8631C389.433 88.8631 392.2 89.1434 394.702 89.704C397.203 90.2646 399.355 91.158 401.159 92.3844C402.964 93.6107 404.358 95.1698 405.342 97.0618C406.326 98.9538 406.818 101.266 406.818 103.999Z" fill="#222222" stroke="black" stroke-width="2000" mask="url(#path-1-inside-1_14_2)"/>
</g>
<defs>
<clipPath id="clip0_14_2">
<rect width="378" height="94" fill="white" transform="translate(33 67)"/>
</clipPath>
</defs>
</svg>
