<svg width="400" height="122" viewBox="0 0 400 122" fill="none" xmlns="http://www.w3.org/2000/svg">
<g clip-path="url(#clip0_21_2)">
<path d="M306.067 37.4045H337.876V48.9888L339.787 49.4026C341.981 44.5745 344.453 41.6167 347.373 39.8435C350.299 38.0667 353.799 37.4045 358.202 37.4045H366.171L365.761 57.8764H352.809C348.035 57.8764 344.24 59.6832 341.672 63.1079C339.135 66.4905 337.876 71.34 337.876 77.3034V118.101H312.91V58.8764V57.8764H311.91H300.674C295.9 57.8764 292.106 59.6832 289.537 63.1079C287 66.4905 285.742 71.34 285.742 77.3034V118.101H260.775V37.4045H285.742V48.9888L287.652 49.4026C289.847 44.5745 292.318 41.6167 295.238 39.8435C298.165 38.0667 301.665 37.4045 306.067 37.4045ZM228.903 91.543L250.771 97.7318C244.851 111.047 231.158 119 214.382 119C200.064 119 189.669 113.395 182.838 105.417C175.987 97.4152 172.685 86.9791 172.685 77.3034C172.685 67.8236 175.555 57.4964 181.958 49.5605C188.336 41.6563 198.271 36.0562 212.584 36.0562C227.807 36.0562 237.85 41.777 244.108 49.5593C250.396 57.3777 252.933 67.3654 252.933 75.9551C252.933 79.4578 252.927 81.4974 252.669 83.0449H197.753H196.6L196.763 84.1864C197.462 89.0822 199.346 92.9228 202.382 95.5335C205.416 98.1431 209.489 99.427 214.382 99.427C221.462 99.427 226.683 96.4724 228.903 91.543ZM227.865 69.3146H228.93L228.863 68.2522C228.383 60.571 222.587 53.8315 213.034 53.8315C208.633 53.8315 204.995 54.7575 202.22 57.1011C199.448 59.4417 197.691 63.0664 196.769 68.1357L196.555 69.3146H197.753H227.865ZM96.702 37.4045H121.501L135.67 85.2279L136.625 88.4488L137.587 85.2303L151.756 37.8539H176.554L147.612 118.101H125.648L96.702 37.4045ZM41.7978 57.8764H40.7978V58.8764V118.101H16.2809V58.8764V57.8764H15.2809H1V37.4045H15.2809H16.2809V36.4045V29.6629C16.2809 21.159 19.4362 14.0167 24.8909 8.99407C30.3519 3.96556 38.1869 1 47.6405 1H66.4157V21.4719H51.6854C48.5607 21.4719 45.8361 22.4352 43.8803 24.2017C41.9155 25.9763 40.7978 28.4996 40.7978 31.4607V36.4045V37.4045H41.7978H92.9326V118.101H68.4157V58.8764V57.8764H67.4157H41.7978Z" fill="#404145" stroke="black" stroke-width="2"/>
<path d="M383.37 121.348C392.359 121.348 400 113.708 400 104.719C400 95.7304 392.359 88.0899 383.37 88.0899C374.382 88.0899 366.741 95.7304 366.741 104.719C366.741 113.708 374.382 121.348 383.37 121.348Z" fill="#1DBF73"/>
</g>
<defs>
<clipPath id="clip0_21_2">
<rect width="400" height="121.348" fill="white"/>
</clipPath>
</defs>
</svg>
