<svg width="230" height="229" viewBox="0 0 230 229" fill="none" xmlns="http://www.w3.org/2000/svg">
<g clip-path="url(#clip0_21_5)">
<path d="M115 20.9914C145.706 20.9914 149.343 21.1098 161.469 21.6703C172.682 22.1887 178.771 24.0866 182.824 25.6816C188.191 27.7949 192.023 30.3199 196.046 34.3964C200.07 38.4729 202.563 42.3542 204.649 47.7916C206.224 51.8972 208.097 58.0658 208.609 69.424C209.162 81.7089 209.279 85.3932 209.279 116.5C209.279 147.607 209.162 151.292 208.609 163.576C208.097 174.935 206.224 181.103 204.649 185.209C202.563 190.646 200.07 194.528 196.046 198.604C192.023 202.681 188.191 205.206 182.824 207.318C178.771 208.914 172.682 210.812 161.469 211.33C149.345 211.891 145.708 212.009 115 212.009C84.2915 212.009 80.6546 211.891 68.5301 211.33C57.3177 210.812 51.2286 208.914 47.1763 207.318C41.8084 205.206 37.977 202.681 33.9531 198.604C29.9291 194.528 27.4366 190.646 25.3509 185.209C23.776 181.103 21.9025 174.935 21.3908 163.576C20.8375 151.292 20.7207 147.607 20.7207 116.5C20.7207 85.3932 20.8375 81.7089 21.3908 69.4245C21.9025 58.0658 23.776 51.8972 25.3509 47.7916C27.4366 42.3542 29.9291 38.4729 33.9531 34.3964C37.977 30.3199 41.8084 27.7949 47.1763 25.6816C51.2286 24.0866 57.3177 22.1887 68.5297 21.6703C80.6564 21.1098 84.2933 20.9914 115 20.9914ZM115 0C83.7674 0 79.8516 0.13411 67.5856 0.70107C55.3448 1.26711 46.9855 3.23621 39.6702 6.11633C32.1079 9.09357 25.6946 13.0771 19.3014 19.5537C12.9083 26.0302 8.97603 32.5272 6.03712 40.1881C3.19408 47.5988 1.25033 56.0671 0.691587 68.4677C0.131927 80.8932 0 84.8605 0 116.5C0 148.14 0.131927 152.107 0.691587 164.533C1.25033 176.933 3.19408 185.402 6.03712 192.812C8.97603 200.473 12.9083 206.97 19.3014 213.447C25.6946 219.923 32.1079 223.907 39.6702 226.884C46.9855 229.764 55.3448 231.733 67.5856 232.299C79.8516 232.866 83.7674 233 115 233C146.232 233 150.148 232.866 162.414 232.299C174.655 231.733 183.014 229.764 190.329 226.884C197.892 223.907 204.305 219.923 210.698 213.447C217.091 206.97 221.024 200.473 223.962 192.812C226.805 185.402 228.749 176.933 229.308 164.533C229.868 152.107 230 148.14 230 116.5C230 84.8605 229.868 80.8932 229.308 68.4677C228.749 56.0671 226.805 47.5988 223.962 40.1881C221.024 32.5272 217.091 26.0302 210.698 19.5537C204.305 13.0771 197.892 9.09357 190.329 6.11633C183.014 3.23621 174.655 1.26711 162.414 0.70107C150.148 0.13411 146.232 0 115 0ZM115 56.6757C82.3852 56.6757 55.9455 83.4602 55.9455 116.5C55.9455 149.54 82.3852 176.325 115 176.325C147.614 176.325 174.054 149.54 174.054 116.5C174.054 83.4602 147.614 56.6757 115 56.6757ZM115 155.334C93.829 155.334 76.6662 137.947 76.6662 116.5C76.6662 95.0533 93.829 77.6667 115 77.6667C136.171 77.6667 153.333 95.0533 153.333 116.5C153.333 137.947 136.171 155.334 115 155.334ZM190.187 54.3121C190.187 62.0332 184.009 68.2924 176.387 68.2924C168.766 68.2924 162.587 62.0332 162.587 54.3121C162.587 46.5911 168.766 40.3324 176.387 40.3324C184.009 40.3324 190.187 46.5911 190.187 54.3121Z" fill="white"/>
</g>
<defs>
<clipPath id="clip0_21_5">
<rect width="230" height="233" fill="white"/>
</clipPath>
</defs>
</svg>
